# xmcd
#
# Track frame offsets: 
#        150
#        19133
#        35659
#        51114
#        67609
#        97620
#        108894
#        125642
#        157683
#        188564
#        204869
#        221399
#
# Disc length: 3171 seconds
#
# Revision: 0
# Processed by: cddbd v1.5.2PL0 Copyright (c) Steve Scherf et al.
# Submitted via: ExactAudioCopyFreeDBPlugin 1.0
#
DISCID=890c610c
DTITLE=Various Artist - The Blues Is Alright - Vol. 2
DYEAR=1991
DGENRE=Blues
TTITLE0=Bobby "Blue" Bland - Members Only
TTITLE1=Z.Z. Hill - Cheatin' in the Next Room
TTITLE2=Denise LaSalle - Don't Mess with My Tu-Tu
TTITLE3=Johnnie Taylor - Still Called the Blues
TTITLE4=Latimore - Let's Straighten It Out
TTITLE5=Denise LaSalle - Don't Mess With My Man
TTITLE6=Bobby "Blue" Bland - St. James Infirmary
TTITLE7=Z.Z. Hill - Someone Else Is Steppin' In
TTITLE8=B.B. King - Sweet Sixteen
TTITLE9=Little Milton - Nobody's Sleeping in My Bed
TTITLE10=Formula V - Part Time Lover, Full Time Fool
TTITLE11=McKinley Mitchell - Trouble Blues
EXTD=
EXTT0=
EXTT1=
EXTT2=
EXTT3=
EXTT4=
EXTT5=
EXTT6=
EXTT7=
EXTT8=
EXTT9=
EXTT10=
EXTT11=
PLAYORDER=
